<?xml version="1.0" standalone="no"?><!DOCTYPE svg PUBLIC "-//W3C//DTD SVG 1.1//EN" "http://www.w3.org/Graphics/SVG/1.1/DTD/svg11.dtd"><svg t="1559217643016" class="icon" style="" viewBox="0 0 1024 1024" version="1.1" xmlns="http://www.w3.org/2000/svg" p-id="2276" xmlns:xlink="http://www.w3.org/1999/xlink" width="200" height="200"><defs><style type="text/css"></style></defs><path d="M956.077983 532.661084c-6.876625-72.832868-43.199938-142.815826-103.993596-193.739686-35.51797-29.797683-76.674363-53.070759-120.844396-70.003424-5.76122 7.929608-12.307316 15.363935-19.782575 22.178137-9.870821 9.003057-20.980868 16.72698-33.081476 22.922082 12.802597 3.820006 25.110936 8.23967 36.922971 13.298901 11.976788 5.162585 16.623626 18.585306 9.974175 29.075228-5.844108 9.292653-18.66717 12.947906-29.239981 8.343024-80.494369-34.651229-170.383722-28.125599-209.80561-22.694908-11.605327 1.569753-22.693884-5.162585-25.419975-15.549153l0-0.103354c-3.118017-11.749614 5.555535-23.437829 18.647727-25.275688 7.185663-1.012051 15.838749-2.024102 25.543795-2.849911-2.953265-2.292208-5.76122-4.68777-8.48731-7.165197-13.918002-12.678776-24.924694-27.485009-32.606661-44.066679-0.784877-1.734506-1.590219-3.551899-2.292208-5.306871-12.018743 1.83786-23.892177 4.130068-35.497504 6.793737-67.587395-35.868965-148.680399-35.951853-196.898636-31.636566-20.959379 1.858326-33.371072 22.261025-24.202239 39.544684l40.846331 76.322346c-45.388792 36.055207-79.689027 80.184307-98.954832 129.372639l-49.808456-0.164752c-16.747446-0.12382-30.355385 12.307316-30.355385 27.567897l0 101.88763c0 10.30368 6.236034 19.658755 16.230676 24.450903l64.635154 30.726846c27.05215 67.957833 57.407535 121.236323 131.252454 161.420574l0 42.291241c0 40.186298 0.350994 84.563039 42.291241 84.563039l126.873722 0c14.000889 0 36.633375-30.603026 42.291241-42.271798l0-42.291241c0 2.190901 129.950807 3.078108 126.873722 0l21.228508 52.926473c0 17.740054 15.859215 32.173802 35.331728 32.173802l90.158483 0c13.009305 0 25.007582-6.52563 31.161751-17.016576 48.011528-82.185896 100.153124-164.684924 138.685758-250.754271C953.229096 624.058792 960.312428 577.802236 956.077983 532.661084zM310.205351 510.028599c-25.110936 0-45.368326-18.481952-45.368326-41.382544 0-22.880126 20.25739-41.382544 45.368326-41.382544s45.388792 18.502418 45.388792 41.382544C355.594143 491.546647 335.315264 510.028599 310.205351 510.028599zM541.631396 292.974904c16.788378 4.770658 35.166976 7.371905 54.412315 7.371905 9.437962 0 18.626238-0.598635 27.464543-1.83786 37.500116-4.996809 69.982958-20.175525 91.68628-41.321146 18.027603-17.531299 28.683301-39.19369 28.683301-62.714406 0.12382-58.501451-66.203884-105.873412-147.834124-105.873412-81.754061 0-147.937478 47.370938-147.937478 105.873412 0 15.177693 4.419664 29.550043 12.514024 42.642235C476.169409 262.557097 505.472835 282.712156 541.631396 292.974904z" p-id="2277" fill="#707070"></path></svg>