<?xml version="1.0" standalone="no"?><!DOCTYPE svg PUBLIC "-//W3C//DTD SVG 1.1//EN" "http://www.w3.org/Graphics/SVG/1.1/DTD/svg11.dtd"><svg t="1560984707959" class="icon" style="" viewBox="0 0 1024 1024" version="1.1" xmlns="http://www.w3.org/2000/svg" p-id="4123" xmlns:xlink="http://www.w3.org/1999/xlink" width="32" height="32"><defs><style type="text/css"></style></defs><path d="M245.333333 416m-32 0a32 32 0 1 0 64 0 32 32 0 1 0-64 0Z" fill="#CE4141" p-id="4124"></path><path d="M981.333333 231.04a21.333333 21.333333 0 0 0-24.746666-17.706667 21.333333 21.333333 0 0 0-17.92 24.746667 52.053333 52.053333 0 0 1-42.666667 59.306667 233.386667 233.386667 0 0 0-149.333333-50.986667H454.826667l-101.12-71.893333A21.333333 21.333333 0 0 0 320 192v42.666667c-115.2 7.466667-193.493333 75.52-209.92 182.613333C74.24 421.973333 42.666667 438.4 42.666667 469.333333v85.333334c0 35.84 50.773333 75.733333 85.333333 75.733333h14.08a275.84 275.84 0 0 0 207.786667 121.813333l34.133333 62.506667a43.733333 43.733333 0 0 0 42.666667 37.546667 45.44 45.44 0 0 0 42.666666-39.893334l33.706667-53.973333h341.333333L896 815.36a43.946667 43.946667 0 0 0 42.666667 35.626667A40.533333 40.533333 0 0 0 981.333333 810.666667V490.666667a256 256 0 0 0-51.626666-160.213334A93.653333 93.653333 0 0 0 981.333333 231.04z m-42.666666 574.933333a21.333333 21.333333 0 0 0-5.76-14.506666l-64-68.906667a21.333333 21.333333 0 0 0-15.573334-6.826667H490.666667a21.333333 21.333333 0 0 0-18.133334 10.026667l-42.666666 68.266667a21.333333 21.333333 0 0 0-3.2 11.306666 21.333333 21.333333 0 0 0-2.56-8.106666l-42.666667-77.013334a21.333333 21.333333 0 0 0-18.773333-10.24A234.666667 234.666667 0 0 1 172.16 597.333333a21.333333 21.333333 0 0 0-18.133333-10.24H128A64 64 0 0 1 85.333333 554.666667v-84.266667a72.106667 72.106667 0 0 1 43.946667-10.666667 21.333333 21.333333 0 0 0 21.333333-19.626666C162.773333 293.12 288 277.333333 341.333333 277.333333a21.333333 21.333333 0 0 0 21.333334-21.333333v-22.613333l72.96 51.84a21.333333 21.333333 0 0 0 12.373333 3.84h298.666667c114.773333 0 192 81.066667 192 201.6v315.306666z" fill="#CE4141" p-id="4125"></path></svg>