<?xml version="1.0" standalone="no"?><!DOCTYPE svg PUBLIC "-//W3C//DTD SVG 1.1//EN" "http://www.w3.org/Graphics/SVG/1.1/DTD/svg11.dtd"><svg t="1560984451125" class="icon" style="" viewBox="0 0 1024 1024" version="1.1" xmlns="http://www.w3.org/2000/svg" p-id="3668" xmlns:xlink="http://www.w3.org/1999/xlink" width="32" height="32"><defs><style type="text/css"></style></defs><path d="M635.7 369.7m-40.7 0a40.7 40.7 0 1 0 81.4 0 40.7 40.7 0 1 0-81.4 0Z" fill="#7EDBFE" p-id="3669"></path><path d="M595 776.9H432.2c-89.8 0-162.9-73.1-162.9-162.9s73.1-162.9 162.9-162.9H595c89.8 0 162.9 73.1 162.9 162.9S684.8 776.9 595 776.9zM432.2 532.6c-44.9 0-81.4 36.5-81.4 81.4 0 44.9 36.5 81.4 81.4 81.4H595c44.9 0 81.4-36.5 81.4-81.4 0-44.9-36.5-81.4-81.4-81.4H432.2z" fill="#7EDBFE" p-id="3670"></path><path d="M391.5 369.7m-40.7 0a40.7 40.7 0 1 0 81.4 0 40.7 40.7 0 1 0-81.4 0Z" fill="#7EDBFE" p-id="3671"></path><path d="M846.7 406.2l-36.2-73c40.3-20 63.2-42.5 68.3-66.9 4.5-21.5-4-48.8-24.6-80.4L744.9 287.6 689.5 228 831.9 95.6c8.2-7.6 19.2-11.7 30.2-10.8 11.1 0.7 21.5 5.9 28.6 14.4 56.4 66.9 79.3 128.7 67.9 183.8-10.4 50.1-48.1 91.5-111.9 123.2zM180.5 406.2C116.7 374.5 79 333.1 68.6 282.9 57.2 227.9 80 166 136.5 99.1c7.2-8.5 17.5-13.7 28.6-14.4 11.2-0.8 22 3.3 30.2 10.8l142.4 132.3-55.4 59.6L172.9 186c-20.6 31.6-29 59-24.6 80.4 5.1 24.4 28 46.9 68.3 66.9l-36.1 72.9z" fill="#7BF2FC" p-id="3672"></path><path d="M513.6 939.7c-224.5 0-407.1-182.6-407.1-407.1s182.6-407.1 407.1-407.1 407.1 182.6 407.1 407.1-182.6 407.1-407.1 407.1z m0-732.8C334 206.9 187.9 353 187.9 532.6S334 858.3 513.6 858.3s325.7-146.1 325.7-325.7-146.1-325.7-325.7-325.7z" fill="#66B2F6" p-id="3673"></path></svg>