<?xml version="1.0" standalone="no"?><!DOCTYPE svg PUBLIC "-//W3C//DTD SVG 1.1//EN" "http://www.w3.org/Graphics/SVG/1.1/DTD/svg11.dtd"><svg t="1560984678295" class="icon" style="" viewBox="0 0 1743 1024" version="1.1" xmlns="http://www.w3.org/2000/svg" p-id="3866" xmlns:xlink="http://www.w3.org/1999/xlink" width="54.46875" height="32"><defs><style type="text/css"></style></defs><path d="M0.12469 506.234489a55.620225 55.620225 0 0 0 56.298521 56.976816A67.829543 67.829543 0 0 0 113.173929 536.305586 260.239346 260.239346 0 0 0 176.707601 678.295429l45.219695 51.550453-19.896666 86.14352 7.687348 52.002649-7.687348 76.647384v1.582689L230.971235 972.223449l9.948333 49.515566v2.260985h105.814087v-26.227423l-40.697726-74.386399-4.521969-45.219695 49.515566-97.674542L407.101948 896.028262l-4.748068 48.385074v1.58269L431.520584 972.223449l9.948332 49.515566v2.260985h105.814087V997.094281L508.846262 927.003754 474.931491 843.121219l32.105984-126.389049 43.863104 10.852727 158.268934 8.817841L992.018707 723.515125l13.113711 128.876131-18.992272 92.700376v1.582689L1014.854653 972.223449l10.174431 49.515566v2.260985H1130.617073v-26.227423l-40.471627-73.708104L1130.617073 808.980349l8.591742-38.436741 52.454846 99.935526 17.86178 74.838596L1238.692145 972.223449l9.948333 49.515566v2.260985h105.814087v-26.227423l-40.697726-74.612498-22.609848-96.31795L1266.276159 655.685582l5.200265-2.93928L1535.333346 542.636344l172.06094-92.700376c19.670567-1.582689 34.819165-37.08015 34.819166-82.752042s-15.826893-82.978141-36.175757-82.978141a226.098476 226.098476 0 0 1-82.073746-15.148598l-67.829543-56.524619c-17.183484-14.244204-35.271362-27.357916-53.585339-39.793332L1549.125353 3.617576V0h-3.617576a271.318172 271.318172 0 0 0-128.423934 32.784279l8.81784-29.166703V0h-3.843674a271.318172 271.318172 0 0 0-227.681166 126.615147l-205.523515 28.940605L339.272405 196.027379A300.710974 300.710974 0 0 0 111.365141 477.293884v28.036211a99.031133 99.031133 0 0 1-14.244204 20.574961 45.219695 45.219695 0 0 1-42.054317 17.86178 36.854052 36.854052 0 0 1-36.854051-31.653787 33.010378 33.010378 0 0 1 12.435416-33.236476 26.905719 26.905719 0 0 1 24.644734-1.356591l8.591742-12.435416a35.045264 35.045264 0 0 0-38.436741-5.200265A48.837271 48.837271 0 0 0 0.12469 506.234489z" fill="#E08080" p-id="3867"></path></svg>