<?xml version="1.0" standalone="no"?><!DOCTYPE svg PUBLIC "-//W3C//DTD SVG 1.1//EN" "http://www.w3.org/Graphics/SVG/1.1/DTD/svg11.dtd"><svg t="1560207996319" class="icon" style="" viewBox="0 0 1024 1024" version="1.1" xmlns="http://www.w3.org/2000/svg" p-id="1791" xmlns:xlink="http://www.w3.org/1999/xlink" width="200" height="200"><defs><style type="text/css"></style></defs><path d="M306.9952 684.8512c-104.8576 0-190.2592-85.4016-190.2592-190.2592s85.4016-190.2592 190.2592-190.2592l168.1408 0.8192c5.7344 0 10.24 4.7104 10.24 10.24 0 5.7344-4.5056 10.24-10.24 10.24l-168.1408-0.8192c-93.5936 0-169.7792 76.1856-169.7792 169.7792s76.1856 169.7792 169.7792 169.7792L768 663.552c5.7344 0 10.24 4.5056 10.24 10.24s-4.5056 10.24-10.24 10.24l-461.0048 0.8192z" fill="" p-id="1792"></path><path d="M100.1472 431.104c-16.7936 0-32.3584-6.144-43.8272-17.6128-10.6496-10.6496-21.2992-29.2864-11.8784-57.344 6.3488-18.8416 16.1792-31.1296 29.0816-36.4544 15.36-6.3488 28.8768 0 30.3104 0.6144 5.12 2.4576 7.168 8.6016 4.5056 13.7216-2.4576 5.12-8.6016 7.168-13.7216 4.7104-0.4096-0.2048-6.7584-2.8672-13.7216 0-6.9632 3.072-12.9024 11.264-17.2032 23.9616-4.9152 14.7456-2.6624 26.624 6.9632 36.4544 8.3968 8.3968 20.6848 12.6976 33.792 11.4688 13.7216-1.2288 25.6-6.5536 35.0208-16.1792 4.096-4.096 10.4448-4.096 14.5408 0s4.096 10.4448 0 14.5408c-16.1792 16.1792-35.0208 20.8896-47.7184 21.9136-1.8432 0.2048-3.8912 0.2048-6.144 0.2048zM294.7072 902.3488H178.9952V642.048c0-5.7344 4.5056-10.24 10.24-10.24s10.24 4.5056 10.24 10.24v172.4416c0.8192-0.2048 1.6384-0.2048 2.4576-0.2048h92.7744v88.064z m-95.232-20.48h74.752v-47.104H201.9328c-0.8192 0-1.6384 0-2.4576-0.2048v47.3088zM639.7952 902.3488h-115.712V687.104c0-5.7344 4.5056-10.24 10.24-10.24s10.24 4.5056 10.24 10.24v127.3856c0.8192-0.2048 1.6384-0.2048 2.4576-0.2048h92.7744v88.064z m-95.232-20.48h74.752v-47.104h-72.2944c-0.8192 0-1.6384 0-2.4576-0.2048v47.3088zM744.6528 634.4704c-96.6656 0-175.3088-78.6432-175.3088-175.3088v-105.0624c0-5.7344 4.5056-10.24 10.24-10.24s10.24 4.5056 10.24 10.24v105.0624c0 85.4016 69.4272 154.8288 154.8288 154.8288 85.4016 0 154.8288-69.4272 154.8288-154.8288v-105.0624c0-5.7344 4.5056-10.24 10.24-10.24s10.24 4.5056 10.24 10.24v105.0624c0 96.6656-78.6432 175.3088-175.3088 175.3088z" fill="" p-id="1793"></path><path d="M576.7168 359.2192c-0.6144 0-1.2288 0-1.8432-0.2048-1.024-0.2048-26.8288-5.12-50.3808-26.0096-21.7088-19.2512-45.8752-56.1152-37.4784-122.4704l0.8192-6.9632 6.7584-1.6384c49.5616-12.4928 90.9312-6.9632 122.88 16.1792 4.5056 3.2768 5.5296 9.6256 2.2528 14.336-3.2768 4.5056-9.6256 5.5296-14.336 2.2528-25.3952-18.432-58.7776-23.3472-99.1232-14.5408-3.8912 42.8032 6.5536 75.5712 31.5392 97.6896 19.456 17.2032 40.1408 21.0944 40.5504 21.0944 5.5296 1.024 9.216 6.3488 8.192 11.8784-0.6144 4.9152-4.9152 8.3968-9.8304 8.3968zM744.6528 551.936c-56.1152 0-100.1472-30.9248-100.1472-70.2464 0-39.3216 44.032-70.2464 100.1472-70.2464s100.1472 30.9248 100.1472 70.2464c0 39.3216-44.032 70.2464-100.1472 70.2464z m0-120.0128c-43.2128 0-79.6672 22.7328-79.6672 49.7664s36.4544 49.7664 79.6672 49.7664 79.6672-22.7328 79.6672-49.7664-36.4544-49.7664-79.6672-49.7664z" fill="" p-id="1794"></path><path d="M654.7456 361.6768m-18.8416 0a18.8416 18.8416 0 1 0 37.6832 0 18.8416 18.8416 0 1 0-37.6832 0Z" fill="#020202" p-id="1795"></path><path d="M834.7648 361.6768m-18.8416 0a18.8416 18.8416 0 1 0 37.6832 0 18.8416 18.8416 0 1 0-37.6832 0Z" fill="#020202" p-id="1796"></path><path d="M444.8256 842.3424h-115.712v-155.2384c0-5.7344 4.5056-10.24 10.24-10.24s10.24 4.5056 10.24 10.24v67.3792c0.8192-0.2048 1.6384-0.2048 2.4576-0.2048h92.7744v88.064z m-95.232-20.48h74.752v-47.104h-72.2944c-0.8192 0-1.6384 0-2.4576-0.2048v47.3088zM789.7088 842.3424h-115.712v-155.2384c0-5.7344 4.5056-10.24 10.24-10.24s10.24 4.5056 10.24 10.24v67.3792c0.8192-0.2048 1.6384-0.2048 2.4576-0.2048h92.7744v88.064z m-95.232-20.48h74.752v-47.104h-72.2944c-0.8192 0-1.6384 0-2.4576-0.2048v47.3088zM910.1312 356.9664c-4.9152 0-9.216-3.4816-10.0352-8.6016-1.024-5.5296 2.8672-10.8544 8.3968-11.8784 3.2768-0.6144 76.5952-14.7456 67.1744-116.5312-40.3456-8.8064-73.5232-3.8912-99.1232 14.5408-4.5056 3.2768-11.0592 2.2528-14.336-2.2528s-2.2528-11.0592 2.2528-14.336c31.9488-23.1424 73.3184-28.672 122.88-16.1792l6.7584 1.6384 0.8192 6.9632c8.192 66.3552-14.5408 102.6048-35.2256 121.2416-22.528 20.48-47.3088 24.7808-48.3328 24.9856-0.2048 0.4096-0.6144 0.4096-1.2288 0.4096z" fill="" p-id="1797"></path></svg>